<?xml version="1.0" encoding="UTF-8" standalone="no"?><!DOCTYPE svg PUBLIC "-//W3C//DTD SVG 1.1//EN" "http://www.w3.org/Graphics/SVG/1.1/DTD/svg11.dtd"><svg width="100%" height="100%" viewBox="0 0 4 4" version="1.1" xmlns="http://www.w3.org/2000/svg" xmlns:xlink="http://www.w3.org/1999/xlink" xml:space="preserve" xmlns:serif="http://www.serif.com/" style="fill-rule:evenodd;clip-rule:evenodd;stroke-linejoin:round;stroke-miterlimit:2;"><rect id="safari-pinned-tab" x="0" y="0" width="3.84" height="3.84" style="fill:none;"/><clipPath id="_clip1"><rect x="0" y="0" width="3.84" height="3.84"/></clipPath><g clip-path="url(#_clip1)"><path d="M3.03,0.414c-0.088,0.02 -0.162,0.031 -0.222,0.031c-0.06,0 -0.117,-0.004 -0.172,-0.012c-0.081,0.096 -0.153,0.225 -0.218,0.387c-0.065,0.161 -0.114,0.305 -0.147,0.433c-0.032,0.127 -0.068,0.283 -0.107,0.468c-0.198,0.942 -0.396,1.61 -0.593,2.006c-0.13,0.039 -0.292,0.077 -0.484,0.113c0.26,-0.445 0.471,-0.961 0.632,-1.549l-0.808,0c-0.205,-0.666 -0.312,-1.317 -0.32,-1.951l1.14,0c-0.055,0.241 -0.082,0.498 -0.082,0.77c0,0.272 0.044,0.582 0.132,0.931c0.019,-0.07 0.05,-0.193 0.094,-0.369c0.044,-0.175 0.077,-0.301 0.098,-0.376c0.02,-0.076 0.052,-0.183 0.095,-0.32c0.043,-0.138 0.082,-0.242 0.117,-0.311c0.035,-0.069 0.079,-0.146 0.131,-0.232c0.094,-0.153 0.217,-0.257 0.371,-0.312c0.044,-0.013 0.134,-0.027 0.269,-0.041c0.135,-0.014 0.233,-0.041 0.293,-0.08c-0.07,0.161 -0.143,0.299 -0.219,0.414Z" style="fill-rule:nonzero;"/></g></svg>